# xmcd
#
# Track frame offsets:
#	150
#	15692
#	28982
#	46772
#	60630
#	83592
#	99360
#	114395
#	128462
#	150902
#	166032
#	184210
#
# Disc length: 2648 seconds
#
# Revision: 1
# Processed by: cddbd v1.5.1PL0 Copyright (c) Steve Scherf et al.
# Submitted via: audiograbber 1.83.01
#
DISCID=800a560c
DTITLE=Destan - Destan 2
DYEAR=1900
DGENRE=Hafif Müzik
TTITLE0=Darildim
TTITLE1=Tophane
TTITLE2=Istanbul
TTITLE3=Gökte yildiz
TTITLE4=Annem
TTITLE5=Isterem
TTITLE6=Dere boyu
TTITLE7=Oynama yorulursun
TTITLE8=Yine mi yalan
TTITLE9=Cano
TTITLE10=Masallah
TTITLE11=Türkiye
EXTD=
EXTT0=
EXTT1=
EXTT2=
EXTT3=
EXTT4=
EXTT5=
EXTT6=
EXTT7=
EXTT8=
EXTT9=
EXTT10=
EXTT11=
PLAYORDER=
